<svg width="1420" height="216" viewBox="0 0 1420 216" fill="none" xmlns="http://www.w3.org/2000/svg">
<path d="M0.155781 212V3.39998H42.1558L120.276 107H100.676L176.556 3.39998H218.556V212H175.156V51.28L192.516 55.2L112.156 158.8H106.556L28.9958 55.2L43.5558 51.28V212H0.155781ZM345.986 215.36C330.306 215.36 315.746 212.653 302.306 207.24C288.866 201.827 277.106 194.267 267.026 184.56C257.133 174.667 249.386 163.187 243.786 150.12C238.186 137.053 235.386 122.867 235.386 107.56C235.386 92.2533 238.093 78.0667 243.506 65C249.106 51.9333 256.853 40.5467 266.746 30.84C276.826 21.1333 288.586 13.5733 302.026 8.15999C315.466 2.74666 330.12 0.0399919 345.986 0.0399919C361.853 0.0399919 376.506 2.74666 389.946 8.15999C403.386 13.5733 415.053 21.1333 424.946 30.84C435.026 40.5467 442.773 51.9333 448.186 65C453.786 78.0667 456.586 92.2533 456.586 107.56C456.586 122.867 453.786 137.053 448.186 150.12C442.586 163.187 434.746 174.667 424.666 184.56C414.773 194.267 403.106 201.827 389.666 207.24C376.226 212.653 361.666 215.36 345.986 215.36ZM345.986 176.16C355.506 176.16 364.28 174.48 372.306 171.12C380.52 167.76 387.706 163.093 393.866 157.12C400.026 150.96 404.786 143.68 408.146 135.28C411.506 126.88 413.186 117.64 413.186 107.56C413.186 97.48 411.506 88.3333 408.146 80.12C404.786 71.72 400.026 64.44 393.866 58.28C387.706 52.12 380.52 47.4533 372.306 44.28C364.28 40.92 355.506 39.24 345.986 39.24C336.466 39.24 327.6 40.92 319.386 44.28C311.36 47.4533 304.266 52.12 298.106 58.28C291.946 64.44 287.186 71.72 283.826 80.12C280.466 88.3333 278.786 97.48 278.786 107.56C278.786 117.64 280.466 126.88 283.826 135.28C287.186 143.68 291.946 150.96 298.106 157.12C304.266 163.093 311.36 167.76 319.386 171.12C327.6 174.48 336.466 176.16 345.986 176.16ZM473.367 212V3.39998H541.407C563.993 3.39998 583.593 7.87999 600.207 16.84C616.82 25.8 629.7 38.12 638.847 53.8C647.993 69.48 652.567 87.4 652.567 107.56C652.567 127.72 647.993 145.733 638.847 161.6C629.7 177.28 616.82 189.6 600.207 198.56C583.593 207.52 563.993 212 541.407 212H473.367ZM516.767 174.2H542.527C556.153 174.2 567.913 171.493 577.807 166.08C587.7 160.48 595.353 152.733 600.767 142.84C606.367 132.76 609.167 121 609.167 107.56C609.167 93.9333 606.367 82.1733 600.767 72.28C595.353 62.3867 587.7 54.7333 577.807 49.32C567.913 43.9067 556.153 41.2 542.527 41.2H516.767V174.2ZM666.359 212V3.39998H754.559C768.932 3.39998 781.252 5.82665 791.519 10.68C801.786 15.5333 809.626 22.5333 815.039 31.68C820.452 40.64 823.159 51.56 823.159 64.44C823.159 73.5867 820.639 82.36 815.599 90.76C810.559 98.9733 802.252 105.88 790.679 111.48V90.2C801.692 94.4933 810.186 99.6267 816.159 105.6C822.132 111.573 826.239 118.107 828.479 125.2C830.719 132.107 831.839 139.387 831.839 147.04C831.839 167.573 825.026 183.533 811.399 194.92C797.772 206.307 778.826 212 754.559 212H666.359ZM709.759 174.2H759.599C768.372 174.2 775.372 171.68 780.599 166.64C785.826 161.6 788.439 155.067 788.439 147.04C788.439 138.827 785.826 132.2 780.599 127.16C775.372 122.12 768.372 119.6 759.599 119.6H709.759V174.2ZM709.759 81.8H757.639C764.359 81.8 769.679 79.9333 773.599 76.2C777.706 72.28 779.759 67.1467 779.759 60.8C779.759 54.4533 777.706 49.4133 773.599 45.68C769.679 41.76 764.359 39.8 757.639 39.8H709.759V81.8ZM928.559 215.36C912.133 215.36 897.479 211.907 884.599 205C871.719 198.093 861.546 188.667 854.079 176.72C846.799 164.587 843.159 150.867 843.159 135.56V3.39998H886.559V132.76C886.559 140.973 888.333 148.44 891.879 155.16C895.613 161.693 900.653 166.827 906.999 170.56C913.346 174.293 920.533 176.16 928.559 176.16C936.773 176.16 943.959 174.293 950.119 170.56C956.466 166.827 961.413 161.693 964.959 155.16C968.693 148.44 970.559 140.973 970.559 132.76V3.39998H1013.96V135.56C1013.96 150.867 1010.23 164.587 1002.76 176.72C995.479 188.667 985.399 198.093 972.519 205C959.639 211.907 944.986 215.36 928.559 215.36ZM1034.3 212V3.39998H1077.7V212H1034.3ZM1100.69 212V3.39998H1144.09V174.2H1232.29V212H1100.69ZM1239.81 212V3.39998H1307.85C1330.44 3.39998 1350.04 7.87999 1366.65 16.84C1383.27 25.8 1396.15 38.12 1405.29 53.8C1414.44 69.48 1419.01 87.4 1419.01 107.56C1419.01 127.72 1414.44 145.733 1405.29 161.6C1396.15 177.28 1383.27 189.6 1366.65 198.56C1350.04 207.52 1330.44 212 1307.85 212H1239.81ZM1283.21 174.2H1308.97C1322.6 174.2 1334.36 171.493 1344.25 166.08C1354.15 160.48 1361.8 152.733 1367.21 142.84C1372.81 132.76 1375.61 121 1375.61 107.56C1375.61 93.9333 1372.81 82.1733 1367.21 72.28C1361.8 62.3867 1354.15 54.7333 1344.25 49.32C1334.36 43.9067 1322.6 41.2 1308.97 41.2H1283.21V174.2Z" fill="white"/>
</svg>
