<svg width="45" height="23" viewBox="0 0 45 23" fill="none" xmlns="http://www.w3.org/2000/svg">
<path d="M0.976 23V0.439999H2.704L12.112 21.688H11.184L20.624 0.439999H22.32V23H20.496V2.776H21.36L12.368 23H10.928L1.936 2.776H2.8V23H0.976ZM28.2573 23V0.439999H36.8653C39.2333 0.439999 41.0573 0.951999 42.3373 1.976C43.6386 2.97867 44.2893 4.42933 44.2893 6.328C44.2893 7.75733 43.8519 8.94133 42.9773 9.88C42.1239 10.8187 40.9506 11.4373 39.4573 11.736V11.288C41.1213 11.4587 42.4333 12.024 43.3933 12.984C44.3533 13.944 44.8333 15.2347 44.8333 16.856C44.8333 18.8613 44.1826 20.3867 42.8813 21.432C41.5799 22.4773 39.7133 23 37.2813 23H28.2573ZM30.1773 21.304H37.1533C38.8813 21.304 40.2573 20.9733 41.2812 20.312C42.3266 19.6293 42.8493 18.488 42.8493 16.888C42.8493 15.2453 42.3266 14.0933 41.2812 13.432C40.2573 12.7493 38.8813 12.408 37.1533 12.408H30.1773V21.304ZM30.1773 10.744H36.6413C38.4973 10.744 39.9053 10.3813 40.8653 9.656C41.8253 8.90933 42.3053 7.832 42.3053 6.424C42.3053 5.016 41.8253 3.94933 40.8653 3.224C39.9053 2.47733 38.4973 2.104 36.6413 2.104H30.1773V10.744Z" fill="white"/>
</svg>
