<svg width="31" height="31" viewBox="0 0 31 31" fill="none" xmlns="http://www.w3.org/2000/svg">
<path d="M30.6912 9.3002C30.6912 9.3002 30.3885 7.16289 29.4561 6.22441C28.2754 4.98926 26.9555 4.9832 26.35 4.91055C22.0148 4.5957 15.5061 4.5957 15.5061 4.5957H15.4939C15.4939 4.5957 8.98516 4.5957 4.65 4.91055C4.04453 4.9832 2.72461 4.98926 1.54395 6.22441C0.611524 7.16289 0.314844 9.3002 0.314844 9.3002C0.314844 9.3002 0 11.8129 0 14.3195V16.6687C0 19.1754 0.308789 21.6881 0.308789 21.6881C0.308789 21.6881 0.611523 23.8254 1.53789 24.7639C2.71855 25.999 4.26855 25.9566 4.95879 26.0898C7.44121 26.326 15.5 26.3986 15.5 26.3986C15.5 26.3986 22.0148 26.3865 26.35 26.0777C26.9555 26.0051 28.2754 25.999 29.4561 24.7639C30.3885 23.8254 30.6912 21.6881 30.6912 21.6881C30.6912 21.6881 31 19.1814 31 16.6687V14.3195C31 11.8129 30.6912 9.3002 30.6912 9.3002ZM12.2971 19.5205V10.8078L20.6707 15.1793L12.2971 19.5205Z" fill="white"/>
</svg>
